<svg width="45" height="40" viewBox="0 0 45 40" fill="none" xmlns="http://www.w3.org/2000/svg">
<path d="M1.65695 39.907C1.28191 39.907 0.96753 39.7791 0.713819 39.5232C0.460108 39.2673 0.333252 38.9502 0.333252 38.5719C0.333252 38.1936 0.460108 37.8803 0.713819 37.6321C0.96753 37.3838 1.28191 37.2596 1.65695 37.2596H43.3428C43.7178 37.2596 44.0322 37.3876 44.2859 37.6435C44.5396 37.8994 44.6665 38.2165 44.6665 38.5947C44.6665 38.973 44.5396 39.2863 44.2859 39.5346C44.0322 39.7829 43.7178 39.907 43.3428 39.907H1.65695ZM5.15141 33.1763C4.4581 33.1763 3.87064 32.9341 3.38904 32.4499C2.9074 31.9657 2.66659 31.3777 2.66659 30.6859V21.8238C2.66659 21.132 2.90925 20.544 3.39459 20.0598C3.87988 19.5755 4.46918 19.3334 5.16249 19.3334C5.8558 19.3334 6.44328 19.5755 6.92492 20.0598C7.40652 20.544 7.64732 21.132 7.64732 21.8238V30.6859C7.64732 31.3777 7.40467 31.9657 6.91938 32.4499C6.43404 32.9341 5.84472 33.1763 5.15141 33.1763ZM16.6745 33.1763C15.9811 33.1763 15.3937 32.9341 14.9121 32.4499C14.4305 31.9657 14.1896 31.3777 14.1896 30.6859V10.1571C14.1896 9.46536 14.4323 8.87736 14.9176 8.39312C15.4029 7.90887 15.9922 7.66675 16.6855 7.66675C17.3789 7.66675 17.9663 7.90887 18.4479 8.39312C18.9296 8.87736 19.1704 9.46536 19.1704 10.1571V30.6859C19.1704 31.3777 18.9277 31.9657 18.4424 32.4499C17.9571 32.9341 17.3678 33.1763 16.6745 33.1763ZM28.2558 33.1763C27.5625 33.1763 26.9751 32.9341 26.4935 32.4499C26.0118 31.9657 25.771 31.3777 25.771 30.6859V17.1571C25.771 16.4654 26.0137 15.8774 26.499 15.3931C26.9843 14.9089 27.5736 14.6667 28.2669 14.6667C28.9602 14.6667 29.5477 14.9089 30.0293 15.3931C30.5109 15.8774 30.7518 16.4654 30.7518 17.1571V30.6859C30.7518 31.3777 30.5091 31.9657 30.0238 32.4499C29.5385 32.9341 28.9492 33.1763 28.2558 33.1763ZM39.8372 33.1763C39.1439 33.1763 38.5564 32.9341 38.0748 32.4499C37.5932 31.9657 37.3524 31.3777 37.3524 30.6859V3.15711C37.3524 2.46536 37.5951 1.87736 38.0803 1.39311C38.5657 0.90887 39.155 0.666748 39.8483 0.666748C40.5416 0.666748 41.1291 0.90887 41.6107 1.39311C42.0923 1.87736 42.3331 2.46536 42.3331 3.15711V30.6859C42.3331 31.3777 42.0905 31.9657 41.6051 32.4499C41.1198 32.9341 40.5305 33.1763 39.8372 33.1763Z" fill="url(#paint0_linear_4239_10775)"/>
<defs>
<linearGradient id="paint0_linear_4239_10775" x1="-15.5046" y1="39.9919" x2="44.9947" y2="0.991135" gradientUnits="userSpaceOnUse">
<stop stop-color="#3D70BD"/>
<stop offset="0.99778" stop-color="#47B881"/>
</linearGradient>
</defs>
</svg>
